<?xml version="1.0"?>
<svg xmlns:rdf="http://www.w3.org/1999/02/22-rdf-syntax-ns#" xmlns="http://www.w3.org/2000/svg" xmlns:cc="http://creativecommons.org/ns#" xmlns:xlink="http://www.w3.org/1999/xlink" xmlns:dc="http://purl.org/dc/elements/1.1/" xmlns:svg="http://www.w3.org/2000/svg" id="svg2" viewBox="0 0 610 610" version="1.1">
  <g id="layer9" transform="translate(0 -.0000026172)">
    <g id="g3163">
      <g id="g5303">
        <g id="layer1" stroke="#000" transform="translate(867.32 -280.3)" >
          <path id="path3143" d="m-460.75 841.37c-8.1186-24.931-14.871-51.655-17.398-75.572-2.3225-14.801-4.4732-29.734-7.5903-44.451-2.1892-14.771-4.8748-29.218-6.8516-44.064-1.3612-19.805 2.014-40.435-5.4104-59.184-13.249-25.02-17.93-43.796-21.441-70.162-0.90383-12.382-11.609-21.109-16.374-31.239-4.5198-10.099-21.676-30.791-7.7932-37.898 11.949 2.3136 14.523 16.656 20.75 25.266 5.5732 6.1027 12.745 22.435 22.299 18.028 3.946-4.1897-4.5975-17.666-6.2616-25.056-1.3594-11.538-7.7584-20.658-8.1791-32.345-10.68-14.906 15.212-25.192 14.02-5.8761 6.961 12.728 6.4671 19.765 14.342 31.71 5.1195 4.2064 5.1007 30.365 12.609 16.152-2.3883-14.047-3.6567-29.054-8.748-42.639-0.30719-11.138-9.3711-22.522-2.4537-32.854 16.018-6.5622 14.93 16.774 19.826 26.316 5.17 16.862 13.108 66.061 22.214 43.034 2.9127-15.41 6.5137-31.013 7.2694-46.846-1.9516-11.666 13.362-28.468 19.036-10.89 2.6064 12.434-2.5585 27.746-0.36663 37.985-1.6353 12.49-3.2666 26.784-3.7881 39.991-3.2158 11.651 4.5442 29.723 17.493 18.024 12.359-7.37 22.307-20.873 38.253-18.991 13.385-6.2356 27.538 18.159 7.8547 15.895-13.566 1.355-25.054 14.522-32.562 24.957-5.669 12.439-18.899 19.412-27.322 29.64-6.958 8.067-16.095 16.841-13.309 28.201 2.5827 26.6 15.164 53.494 17.45 77.098 3.2336 12.739 6.8528 25.334 9.448 38.4 3.5844 10.739 7.4628 22.486 13.456 31.461 6.294 13.152 11.115 26.753 16.034 40.339 4.7238 9.337 7.4837 17.131 10.264 26.885 5.0453 8.361 2.852 8.6849 2.852 8.6849-33.499 0.55773-66.252 0-99.622 0z" stroke="#000" fill="#e85a4f"/>
        </g>
        <g id="layer1-9" transform="matrix(.86041 0 0 1 -119.03 -131.1)" >
          <path id="path2906" d="m236.11 531.75c9.8877-27.807 25.133-54.118 30.063-83.41-4.0614-17.231-4.7395-34.947-0.80804-52.39 2.8842-17.342 0.33708-35.148-8.3743-50.534-7.7738-9.1466-14.206-43.059 6.9919-28.388 8.5463 14.479 13.191 34.113 27.701 43.463 2.9377-13.016-0.96443-30.017 0.31708-44.588 0.0291-12.631-3.3586-41.152 17.565-32.496 7.4162 17.068 2.6521 37.79 6.8845 56.162-0.72485 11.162 7.1422 17.208 9.5448 3.39 8.4869-19.076 11.237-39.832 16.572-59.816 13.744-19.782 25.419 10.371 18.344 23.275-0.31401 17.809-10.092 33.458-12.345 50.79 11.503-3.4969 18.674-24.18 25.85-35.941 4.8053-10.435 15.313-39.664 28.678-21.764 3.2504 33.073-29.827 55.012-31.117 86.926-0.57315 13.362 5.9596 33.652 22.143 20.064 16.631-7.4544 34.426-24.163 53.709-15.39 10.89 15.302-21.295 19.515-29.205 29.615-15.8 11.194-30.798 23.434-47.833 32.786-10.773 12.368-32.463 7.5927-38.212 24.288-7.6531 19.386-11.793 40.217-14.386 60.837-8.3844 25.248-3.5759 54.588-11.125 80.585-4.066 17.107-2.5942 33.853 0.49783 51.353-1.6459 5.2766 4.6149 19.777-1.8561 20.536h-99.418c1.51-38.97 9.39-108.55 29.81-159.35z" fill="#353535"/>
        </g>
        <g id="layer1-0" transform="translate(512.27 -156)" >
          <path id="path3067" d="m-379.26 630.87c-1.9663-11.454-3.7851-22.948-6.171-34.004 2.2646-8.7249 9.524-15.813 17.021-21.006 9.4339-5.6826 13.492-16.401 16.837-26.275 3.5693-10.108 14.16-15.781 21.719-21.04 4.2092-9.6133-16.429-13.389-22.888-7.9431-9.2213 4.3525-16.537 12.313-21.759 20.827-9.4861 10.846-9.3066-15.785-8.7312-22.201 1.9614-13.739 3.6494-27.415 2.2771-41.429 3.4135-15.606-19.514-22.104-18.145-4.1641-1.1659 12.393-1.3809 23.486-3.2 35.735 0.92893 9.4489-7.5841 6.4857-4.6219-2.1198-2.3878-13.408-1.8218-27.183-5.5194-40.517 0.55014-13.901-21.793-16.791-17.761-0.63128 1.0486 11.466 1.459 21.299 2.098 33.136 0.50253 4.1985 0.46807 22.907-3.1063 9.4268-3.5351-12.422-6.2048-24.949-10.134-37.28-4.3515-17.616-24.425-1.6662-15.107 10.779 2.2346 8.6087 3.377 17.1 5.3269 25.556 2.237 7.2075 4.5702 25.853-8.2735 16.32-7.9147-7.7569-11.992-19.496-19.678-27.449-15.424-2.9953-8.3312 15.64-3.3892 22.973 3.7872 6.6917 7.5891 14.035 12.717 19.494 6.1626 7.1258 5.7718 17.793 7.4848 26.937 2.1685 12.345 10.214 22.449 17.474 32.195-0.38308 10.194 0.89612 21.59 3.1788 32.702 7.0425 54.994 5.7488 35.026 6.9681 85.103h72.379c-5.5445-29.156-11.632-55.955-16.995-85.125z" fill="#e85a4f"/>
        </g>
        <g id="layer1-1" transform="matrix(.69739 0 0 .69739 827.63 -28.608)" >
          <path id="path2830" d="m-552.46 840.54c8.4647-25.321 15.389-51.418 16.978-78.204 3.6847-44.535 9.2773-88.862 12.825-133.41-10.391-12.43-14.928-28.277-20.267-43.24-5.7686-19.203-1.7041-40.054-7.0859-59.1 0.51632-14.484-9.7884-25.054-14.717-36.758 7.6664-20.991 30.324 0.93198 35.935 12.83 6.1147 8.3115 11.012 30.346 12.706 33.94 7.5785-15.616 9.2413-33.183 11.092-50.111 0.27329-20.766 8.6305-40.261 11.171-60.71 0.97287-17.544 32.532-24.829 25.741-1.7137-3.991 25.431-5.9334 51.404-2.8445 77.038 6.0214-6.6167 6.8669-30.234 10.548-43.231 3.5559-15.111 3.3967-32.618 13.588-45.073 16.885-16.079 25.01 13.857 18.374 26.498-1.5837 21.555-4.9796 43.085-5.0945 64.677 9.0842-6.5634 9.8931-26.562 14.401-38.672 5.5643-13.342 4.1003-39.626 23.337-40.229 16.652 7.7804 2.9064 29.255 1.9896 42.72-3.8902 18.364-9.0482 36.592-12.058 55.058 9.3772-7.4821 12.452-28.806 17.527-41.956 1.331-17.841 32.657-23.671 23.78-0.0257-2.887 20.109-10.764 39.167-16.956 58.428-7.6392 24.363-15.572 48.773-25.729 72.275-6.5755 16.193-20.288 29.118-23.769 46.856-4.9275 24.832-2.2958 50.566-2.971 75.778 0.22647 36.532 0.78503 73.061 1.216 109.59h-120.41c0.23176-1.0832 0.46311-2.167 0.69509-3.25z" fill="#353535"/>
        </g>
        <g id="layer1-4" transform="matrix(.75009 0 0 .75009 678.83 -67.852)">
          <path id="path3219" d="m-515.49 837.54c3.3283-18.014 3.7596-36.618 5.7996-55.049 2.6894-18.065 3.7366-36.503 5.3766-54.573 1.1938-24.815 5.3701-50.159 0.93911-74.966-2.0566-15.443-7.6161-30.746-12.196-45.912-9.6939-22.592-12.94-48.424-29.06-67.789-8.2404-16.162-20.825-29.608-28.898-45.866-13.818-19.798 17.186-31.248 25.236-10.59 8.6176 15.48 19.508 30.146 31.792 42.714 13.645-7.7898-7.437-25.467-7.3009-37.597-5.1331-19.826-13.108-40.048-10.338-60.786 14.96-16.469 28.721 7.3817 30.065 21.607 2.878 19.012 13.235 35.663 16.301 54.553 6.6958-8.9901-2.244-27.905-3.6616-40.448-1.0089-18.85-0.43293-38.146-4.2824-56.561-0.24493-17.89 27.697-17.53 28.814-0.30943 2.5925 19.857 6.9478 39.493 9.3538 59.352 0.54936 9.2316 0.58807 38.171 3.546 15.819 0.14479-16.558 3.53-32.878 4.653-49.133-3.4134-15.234 12.593-41.578 26.745-24.207 4.712 24.38 1.887 49.649 0.1399 74.251-3.7265 16.674 0.0121 34.061 5.4492 50.514 3.3918 8.1659 13.665 22.872 16.019 5.7275 2.688-15.581 8.0851-30.144 17.865-42.517 9.543-18.5 42.571-7.7796 29.13 12.517-7.7768 20.016-17.476 40.188-17.723 62.108-2.9388 19.027-19.386 31.667-27.65 48.365-12.031 14.942-18.86 33.503-18.989 52.709-3.934 21.879-1.6196 44.689-1.8305 66.935 2.1678 17.009 2.4282 34.247 4.9436 51.321 1.8116 17.026 6.6179 29.796 6.9349 47.304-32.448 0-76.182 0-107.17 0.50798z" fill="#353535"/>
        </g>
        <g id="layer1-2" transform="matrix(.69713 .12578 -.12578 .69713 645.55 107.42)">
          <path id="path3333" d="m-485.96 736.89c2.8663-16.027-0.28399-35.178 2.8115-51.205 0.69205-15.433-0.13029-30.875-2.8506-45.895-1.9644-14.771-19.044-20.321-27.752-31.331-10.279-13.087-25.77-19.078-38.5-28.439-9.8866-11.28-34.738-12.432-35.874-28.254 12.82-14.56 37.112-9.8808 50.781 1.0237 10.596 5.4997 29.38 16.411 35.526-0.97187 3.7956-8.6084 6.0142-18.38 1.138-27.141-4.567-10.973-8.019-23.089-11.53-34.796-4.1094-11.894-5.573-23.601-9.7193-35.548-4.2011-11.028-11.579-25.55-4.07-34.543 7.2542-8.6881 23.113 4.6154 24.294 16.346 4.2892 9.7325 7.0316 19.788 11.706 29.154 4.9185 8.9026 9.2312 19.777 14.725 28.047-3.3434-23.798-0.3578-48.813-4.6461-72.684-3.989-23.481 23.254-22.396 23.627-4.5406 3.2136 15.362 2.4956 31.68 7 46.716 5.0251 10.199-0.22682 32.68 9.9624 35.647 3.6033-13.898 8.1609-27.107 11.2-41.104 5.3592-11.697 0.2097-38.055 19.089-35.532 14.02 7.2398 2.3883 30.534 3.9684 43.977-2.7745 15.655-3.334 31.818-8.1332 46.781 5.4526 9.1619 14.684-15.128 21.207-20.467 8.2004-9.6046 10.895-22.132 18.781-30.954 20.511-6.0282 15.221 20.666 7.44 30.541-6.1234 13.384-13.124 26.515-21.295 39.073-5.7284 15.138-6.777 31.901-9.194 48.062-3.6883 13.449-5.628 27.625-9.7206 40.938-8.7426 14.176 1.4207 30.031 1.2536 45.238 3.6673 16.6 5.0047 39.178 7.7577 55.807l-88.983 16.055z" fill="#e85a4f"/>
        </g>
      </g>
    </g>
  </g>
</svg>
